#!OML:ASF E:\Steps\Project 1\Capture day 1\Session 2\Subject.ASF
:FULLY-SPECIFIED
:DEGREES
166
root 9.04179 16.2216 31.6603 -159.96 -2.60419 179.866
lowerback -25.8617 -1.75234 -4.80269
upperback -0.59117 -1.27644 0.171462
thorax 13.9719 -1.06844 2.45196
lowerneck -6.2986 -1.87123 2.22975
upperneck 13.1708 -2.82162 -2.42538
head 4.92093 -1.57091 -1.29891
rclavicle 6.4605e-016 5.96354e-015
rhumerus -32.9299 -16.8754 -80.3943
rradius 27.316
rwrist 2.77494
rhand -6.00178 -52.4797
rfingers 7.12502
rthumb 19.8306 -81.488
lclavicle 6.4605e-016 5.96354e-015
lhumerus -28.2581 10.2331 80.1399
lradius 15.3647
lwrist -13.7338
lhand -18.6961 -10.8671
lfingers 7.12502
lthumb 7.5985 18.9764
rfemur -20.5405 9.21056 21.0317
rtibia 11.2329
rfoot -20.867 -10.4787
rtoes -23.6998
lfemur -23.0267 -9.91597 -18.8701
ltibia 13.1883
lfoot -9.45638 2.13653
ltoes -40.0882
167
root 9.0357 16.2198 31.6535 -159.86 -2.53256 179.776
lowerback -26.0629 -1.71517 -4.79313
upperback -0.574802 -1.2113 0.0872967
thorax 14.095 -1.03899 2.37036
lowerneck -6.33896 -1.88376 2.29961
upperneck 13.1877 -2.8402 -2.47262
head 4.93076 -1.57939 -1.32681
rclavicle 7.40473e-015 1.27222e-014
rhumerus -32.9891 -17.4694 -80.156
rradius 26.8967
rwrist 3.23779
rhand -6.52019 -51.5375
rfingers 7.12502
rthumb 19.3322 -80.5965
lclavicle 7.40473e-015 1.27222e-014
lhumerus -28.4635 10.477 79.8572
lradius 15.1608
lwrist -13.9556
lhand -19.0428 -11.4038
lfingers 7.12502
lthumb 7.26385 18.4515
rfemur -20.6231 9.07633 20.8911
rtibia 11.229
rfoot -20.8863 -10.212
rtoes -23.8859
lfemur -23.0467 -10.1128 -18.9693
ltibia 13.1264
lfoot -9.56353 2.23506
ltoes -39.0674
168
root 9.03227 16.2185 31.6432 -159.902 -2.43228 179.712
lowerback -26.1464 -1.65835 -4.79139
upperback -0.501896 -1.11104 -0.0129925
thorax 14.2177 -0.990587 2.2897
lowerneck -6.4235 -1.89655 2.43062
upperneck 13.2135 -2.8632 -2.5363
head 4.94952 -1.58759 -1.37079
rclavicle 5.2181e-015 -4.37326e-015
rhumerus -33.0857 -17.9066 -80.0202
rradius 26.6251
rwrist 3.43889
rhand -7.42143 -49.1701
rfingers 7.12502
rthumb 18.4655 -78.3137
lclavicle 5.2181e-015 -4.37326e-015
lhumerus -28.8725 9.84937 79.8669
lradius 15.5871
lwrist -13.4227
lhand -19.2505 -10.8707
lfingers 7.12502
lthumb 7.06339 18.9914
rfemur -20.5277 9.02712 20.8129
rtibia 11.2149
rfoot -20.9021 -9.9597
rtoes -23.3456
lfemur -22.8557 -10.1217 -19.1261
ltibia 12.9999
lfoot -9.64654 2.36197
ltoes -38.8987
169
root 9.03476 16.2168 31.6485 -159.692 -2.39848 179.716
lowerback -26.227 -1.64895 -4.79202
upperback -0.559617 -1.10035 -0.051325
thorax 14.1916 -0.98682 2.24848
lowerneck -6.48337 -1.89613 2.52949
upperneck 13.2311 -2.86526 -2.59966
head 4.96255 -1.5874 -1.40777
rclavicle 8.89561e-015 7.95139e-015
rhumerus -33.2161 -18.013 -80
rradius 26.5278
rwrist 2.86335
rhand -7.55886 -47.6631
rfingers 7.12502
rthumb 18.3333 -76.8192
lclavicle 8.89561e-015 7.95139e-015
lhumerus -28.9265 10.673 79.3356
lradius 15.1557
lwrist -14.1476
lhand -19.4663 -10.5499
lfingers 7.12502
lthumb 6.85504 19.3191
rfemur -20.8615 9.12974 20.7725
rtibia 11.3531
rfoot -20.9308 -10.0418
rtoes -22.7398
lfemur -23.1746 -9.94644 -19.1108
ltibia 13.1491
lfoot -9.66251 2.31268
ltoes -39.5902
170
root 9.03611 16.2177 31.6508 -159.571 -2.43191 179.81
lowerback -26.1805 -1.63692 -4.65044
upperback -0.661472 -1.14301 -0.0612189
thorax 14.0444 -0.99621 2.14028
lowerneck -6.49074 -1.89566 2.58332
upperneck 13.258 -2.86461 -2.66128
head 4.97028 -1.58917 -1.43616
rclavicle -1.36664e-014 -9.14409e-015
rhumerus -33.4329 -17.8454 -80.0971
rradius 26.5266
rwrist 1.81491
rhand -8.57703 -48.2502
rfingers 7.12502
rthumb 17.3536 -77.4955
lclavicle -1.36664e-014 -9.14409e-015
lhumerus -29.1817 10.9604 78.9824
lradius 14.8633
lwrist -14.1818
lhand -19.3011 -10.6297
lfingers 7.12502
lthumb 7.01449 19.234
rfemur -21.0251 9.17329 20.8597
rtibia 11.374
rfoot -20.8985 -10.144
rtoes -22.9823
lfemur -23.4198 -10.0049 -18.938
ltibia 13.349
lfoot -9.71645 2.37376
ltoes -39.4209
171
root 9.03357 16.2189 31.6414 -159.657 -2.7009 179.767
lowerback -26.2158 -1.74177 -4.68506
upperback -0.580609 -1.26181 -0.0165038
thorax 14.1718 -1.05302 2.16618
lowerneck -6.56645 -1.89127 2.5722
upperneck 13.2745 -2.85147 -2.70164
head 4.98801 -1.58526 -1.44736
rclavicle -3.67752e-015 9.93923e-015
rhumerus -33.4557 -17.8455 -80.0139
rradius 26.4084
rwrist 1.50212
rhand -9.38504 -50.1315
rfingers 7.12502
rthumb 16.5758 -79.4436
lclavicle -3.67752e-015 9.93923e-015
lhumerus -29.3484 11.868 78.5905
lradius 14.5697
lwrist -14.9833
lhand -18.8622 -10.9197
lfingers 7.12502
lthumb 7.43817 18.9295
rfemur -20.74 8.95546 20.8932
rtibia 11.1735
rfoot -20.8788 -10.2167
rtoes -23.3017
lfemur -23.3179 -9.81401 -19.0479
ltibia 13.3812
lfoot -9.65112 1.93815
ltoes -40.3388
172
root 9.02966 16.2161 31.6316 -159.598 -3.01916 179.52
lowerback -26.2918 -1.87253 -4.84521
upperback -0.587776 -1.3749 -0.0926604
thorax 14.2159 -1.1138 2.12551
lowerneck -6.58702 -1.91514 2.65052
upperneck 13.2946 -2.88852 -2.73989
head 4.99489 -1.60218 -1.47481
rclavicle 2.13694e-015 -9.93923e-015
rhumerus -33.595 -18.0825 -79.8954
rradius 26.2095
rwrist 1.80396
rhand -9.27383 -51.4255
rfingers 7.12502
rthumb 16.6828 -80.7286
lclavicle 2.13694e-015 -9.93923e-015
lhumerus -29.4978 12.3442 78.253
lradius 14.1926
lwrist -15.464
lhand -18.6055 -12.5136
lfingers 7.12502
lthumb 7.68589 17.3267
rfemur -20.5933 8.67939 20.6679
rtibia 10.9954
rfoot -20.9433 -10.2961
rtoes -22.4738
lfemur -23.3057 -10.4079 -19.2511
ltibia 13.33
lfoot -9.5486 2.05048
ltoes -39.6092
173
root 9.02973 16.2194 31.6374 -159.536 -2.99317 179.486
lowerback -26.1812 -1.83782 -4.85509
upperback -0.640143 -1.33102 -0.153094
thorax 14.0872 -1.09121 2.08027
lowerneck -6.61386 -1.93841 2.7702
upperneck 13.3091 -2.92824 -2.78406
head 5.00031 -1.6185 -1.51101
rclavicle -3.13086e-015 1.31198e-014
rhumerus -33.7567 -18.7894 -79.5327
rradius 25.7899
rwrist 2.85254
rhand -8.66993 -51.54
rfingers 7.12502
rthumb 17.2641 -80.7932
lclavicle -3.13086e-015 1.31198e-014
lhumerus -29.6228 12.7918 77.8785
lradius 13.8348
lwrist -15.9433
lhand -18.6726 -10.2953
lfingers 7.12502
lthumb 7.62113 19.5474
rfemur -20.7433 8.64497 20.6051
rtibia 11.0954
rfoot -20.9399 -10.2462
rtoes -22.0939
lfemur -23.4582 -10.2083 -19.3093
ltibia 13.4721
lfoot -9.5971 1.79751
ltoes -39.3987
174
root 9.03193 16.212 31.6505 -159.11 -2.45888 179.832
lowerback -26.4624 -1.57786 -4.55824
upperback -0.777589 -1.09718 -0.107754
thorax 14.055 -0.974882 2.04638
lowerneck -6.6883 -1.94678 2.81804
upperneck 13.3281 -2.93865 -2.83159
head 5.01694 -1.62379 -1.53554
rclavicle -5.96354e-016 1.19271e-014
rhumerus -33.9213 -20.3079 -78.5532
rradius 24.9539
rwrist 5.35967
rhand -6.04589 -50.3194
rfingers 7.12502
rthumb 19.7882 -79.3321
lclavicle -5.96354e-016 1.19271e-014
lhumerus -29.8515 13.2361 77.5992
lradius 13.7418
lwrist -16.363
lhand -18.7407 -11.1497
lfingers 7.12502
lthumb 7.55545 18.6953
rfemur -21.6287 8.78022 20.8793
rtibia 11.5664
rfoot -20.8745 -9.81002
rtoes -23.4692
lfemur -24.0019 -9.77765 -18.9379
ltibia 13.5353
lfoot -9.69252 2.12422
ltoes -39.6105
175
root 9.02923 16.2154 31.6473 -159.21 -2.64437 179.848
lowerback -26.3467 -1.63184 -4.48595
upperback -0.735924 -1.1872 -0.098621
thorax 14.0465 -1.00746 1.98299
lowerneck -6.73173 -1.95204 2.82888
upperneck 13.3501 -2.9426 -2.87095
head 5.03011 -1.6278 -1.55074
rclavicle 4.62174e-015 1.19271e-015
rhumerus -33.9983 -20.7966 -78.2404
rradius 24.6036
rwrist 5.86915
rhand -5.70473 -50.4518
rfingers 7.12502
rthumb 20.1162 -79.4304
lclavicle 4.62174e-015 1.19271e-015
lhumerus -30.1166 13.4881 77.3946
lradius 13.727
lwrist -16.622
lhand -18.8462 -11.4482
lfingers 7.12502
lthumb 7.45356 18.4005
rfemur -21.4017 8.57522 20.9699
rtibia 11.4171
rfoot -20.8743 -9.74565
rtoes -24.0232
lfemur -23.8835 -9.90035 -18.9437
ltibia 13.4858
lfoot -9.66519 2.18215
ltoes -40.8115
176
root 9.02884 16.2127 31.6467 -158.929 -2.52693 179.795
lowerback -26.6141 -1.6132 -4.52478
upperback -0.791349 -1.14729 -0.144859
thorax 14.1243 -0.996998 1.9624
lowerneck -6.77058 -1.94936 2.8699
upperneck 13.3698 -2.93796 -2.9194
head 5.04146 -1.62667 -1.57308
rclavicle 3.97569e-015 -1.19271e-014
rhumerus -34.1309 -21.0635 -78.101
rradius 24.4878
rwrist 6.0303
rhand -6.06104 -49.8546
rfingers 7.12502
rthumb 19.7737 -78.8688
lclavicle 3.97569e-015 -1.19271e-014
lhumerus -30.3497 13.5371 77.2376
lradius 13.7125
lwrist -16.7092
lhand -19.0184 -11.5745
lfingers 7.12502
lthumb 7.2874 18.2801
rfemur -21.7653 8.58927 20.8402
rtibia 11.5205
rfoot -20.9562 -9.47224
rtoes -23.1877
lfemur -24.1835 -9.82037 -19
ltibia 13.4965
lfoot -9.62372 2.22211
ltoes -40.6429
177
root 9.02647 16.2146 31.6407 -158.958 -2.57869 179.613
lowerback -26.5769 -1.66763 -4.68048
upperback -0.771716 -1.16292 -0.202806
thorax 14.1302 -1.0118 1.97938
lowerneck -6.79808 -1.95595 2.93862
upperneck 13.3948 -2.94905 -2.97271
head 5.05156 -1.63248 -1.60234
rclavicle 3.42904e-015 1.07344e-014
rhumerus -34.3522 -21.1613 -77.984
rradius 24.5056
rwrist 5.93596
rhand -6.98075 -46.7201
rfingers 7.12502
rthumb 18.8893 -75.8229
lclavicle 3.42904e-015 1.07344e-014
lhumerus -30.5365 13.2067 77.2942
lradius 13.774
lwrist -16.2798
lhand -19.0693 -11.3874
lfingers 7.12502
lthumb 7.23828 18.4688
rfemur -21.633 8.59868 20.6261
rtibia 11.4321
rfoot -20.8849 -9.57228
rtoes -22.8878
lfemur -24.0793 -9.93048 -19.2323
ltibia 13.4838
lfoot -9.60732 2.15591
ltoes -40.5916
178
root 9.02378 16.2127 31.6333 -158.927 -2.59842 179.496
lowerback -26.6226 -1.69284 -4.7908
upperback -0.774386 -1.16041 -0.214036
thorax 14.1539 -1.01901 2.02997
lowerneck -6.83308 -1.96841 2.98133
upperneck 13.4206 -2.96644 -3.01525
head 5.06356 -1.64188 -1.62452
rclavicle 2.98177e-015 -1.51076e-014
rhumerus -34.5612 -21.2394 -77.7552
rradius 24.4514
rwrist 5.98226
rhand -6.19715 -49.8717
rfingers 7.12502
rthumb 19.6428 -78.8993
lclavicle 2.98177e-015 -1.51076e-014
lhumerus -30.7048 13.1487 77.3065
lradius 13.7986
lwrist -16.0652
lhand -18.9325 -10.9472
lfingers 7.12502
lthumb 7.37029 18.9044
rfemur -21.6059 8.54471 20.4964
rtibia 11.4084
rfoot -20.8213 -9.71233
rtoes -23.0602
lfemur -24.0251 -10.115 -19.3684
ltibia 13.4333
lfoot -9.54968 2.26017
ltoes -41.0149
179
root 9.02132 16.2113 31.6255 -158.939 -2.6527 179.42
lowerback -26.659 -1.73336 -4.8644
upperback -0.748504 -1.18571 -0.2165
thorax 14.2084 -1.03576 2.05896
lowerneck -6.87881 -1.96587 3.0109
upperneck 13.4419 -2.96037 -3.06604
head 5.07672 -1.64078 -1.64579
rclavicle -3.37934e-015 -7.95139e-015
rhumerus -34.6767 -21.4223 -77.5189
rradius 24.2905
rwrist 6.25445
rhand -5.58736 -50.5748
rfingers 7.12502
rthumb 20.229 -79.5414
lclavicle -3.37934e-015 -7.95139e-015
lhumerus -30.8625 13.7302 77.012
lradius 13.6475
lwrist -16.5964
lhand -18.8207 -10.8447
lfingers 7.12502
lthumb 7.4782 19.0031
rfemur -21.5024 8.59948 20.3882
rtibia 11.3381
rfoot -20.9775 -9.78307
rtoes -22.4215
lfemur -23.939 -10.2898 -19.4559
ltibia 13.351
lfoot -9.50785 2.29293
ltoes -40.2948
180
root 9.01971 16.2143 31.6211 -159.065 -2.74265 179.366
lowerback -26.5096 -1.76821 -4.87798
upperback -0.712199 -1.22242 -0.250453
thorax 14.1718 -1.04835 2.01589
lowerneck -6.91556 -1.97179 3.05547
upperneck 13.4667 -2.96754 -3.12013
head 5.08878 -1.64584 -1.67128
rclavicle -9.0447e-015 2.78299e-015
rhumerus -34.7703 -21.6363 -77.3945
rradius 24.1182
rwrist 6.48087
rhand -5.8805 -50.0939
rfingers 7.12502
rthumb 19.9472 -79.0902
lclavicle -9.0447e-015 2.78299e-015
lhumerus -30.9975 14.0649 76.7383
lradius 13.4851
lwrist -16.8993
lhand -18.858 -11.0546
lfingers 7.12502
lthumb 7.44224 18.7945
rfemur -21.2585 8.60758 20.3485
rtibia 11.226
rfoot -21.0812 -9.82126
rtoes -21.9594
lfemur -23.7635 -10.3034 -19.5558
ltibia 13.3113
lfoot -9.46263 2.13842
ltoes -39.5881
